<svg width="24" height="8" viewBox="0 0 24 8" fill="none" xmlns="http://www.w3.org/2000/svg">
<path d="M1.42412e-06 4C-0.000790812 3.03941 0.328981 2.11067 0.928944 1.38379C1.52891 0.656905 2.35892 0.180529 3.26702 0.0418671C4.17513 -0.0967944 5.10057 0.111537 5.87391 0.628722C6.64726 1.14591 7.21677 1.93734 7.47818 2.85813H8.34C8.57568 2.03379 9.05909 1.31101 9.71845 0.79714C10.3778 0.28327 11.1779 0.005722 12 0.005722C12.8221 0.005722 13.6222 0.28327 14.2815 0.79714C14.9409 1.31101 15.4243 2.03379 15.66 2.85813H16.5218C16.7861 1.94045 17.3564 1.15263 18.129 0.638159C18.9016 0.123689 19.825 -0.0832077 20.7311 0.0551471C21.6372 0.193502 22.4657 0.667904 23.0657 1.39196C23.6657 2.11601 23.9972 3.04154 24 4C24.0008 4.96059 23.671 5.88933 23.0711 6.61621C22.4711 7.34309 21.6411 7.81947 20.733 7.95813C19.8249 8.09679 18.8994 7.88846 18.1261 7.37128C17.3527 6.85409 16.7832 6.06266 16.5218 5.14187H15.66C15.4243 5.96621 14.9409 6.68899 14.2815 7.20286C13.6222 7.71673 12.8221 7.99428 12 7.99428C11.1779 7.99428 10.3778 7.71673 9.71845 7.20286C9.05909 6.68899 8.57568 5.96621 8.34 5.14187H7.47818C7.21394 6.05955 6.64358 6.84737 5.87099 7.36184C5.0984 7.87631 4.17497 8.08321 3.26887 7.94485C2.36278 7.8065 1.5343 7.3321 0.934318 6.60804C0.334337 5.88399 0.00276987 4.95846 1.42412e-06 4ZM3.81818 2.2872C3.38419 2.2872 2.96798 2.46765 2.6611 2.78887C2.35422 3.11008 2.18182 3.54574 2.18182 4C2.18182 4.45426 2.35422 4.88992 2.6611 5.21113C2.96798 5.53235 3.38419 5.7128 3.81818 5.7128C4.25217 5.7128 4.66839 5.53235 4.97527 5.21113C5.28214 4.88992 5.45455 4.45426 5.45455 4C5.45455 3.54574 5.28214 3.11008 4.97527 2.78887C4.66839 2.46765 4.25217 2.2872 3.81818 2.2872ZM12 2.2872C11.566 2.2872 11.1498 2.46765 10.8429 2.78887C10.536 3.11008 10.3636 3.54574 10.3636 4C10.3636 4.45426 10.536 4.88992 10.8429 5.21113C11.1498 5.53235 11.566 5.7128 12 5.7128C12.434 5.7128 12.8502 5.53235 13.1571 5.21113C13.464 4.88992 13.6364 4.45426 13.6364 4C13.6364 3.54574 13.464 3.11008 13.1571 2.78887C12.8502 2.46765 12.434 2.2872 12 2.2872ZM20.1818 2.2872C19.7478 2.2872 19.3316 2.46765 19.0247 2.78887C18.7179 3.11008 18.5455 3.54574 18.5455 4C18.5455 4.45426 18.7179 4.88992 19.0247 5.21113C19.3316 5.53235 19.7478 5.7128 20.1818 5.7128C20.6158 5.7128 21.032 5.53235 21.3389 5.21113C21.6458 4.88992 21.8182 4.45426 21.8182 4C21.8182 3.54574 21.6458 3.11008 21.3389 2.78887C21.032 2.46765 20.6158 2.2872 20.1818 2.2872Z" fill="white"/>
</svg>
