<svg width="25" height="25" viewBox="0 0 25 25" fill="none" xmlns="http://www.w3.org/2000/svg">
<path d="M25 3.97501L10.7375 18.25L5.4375 12.95L7.2 11.1875L10.7375 14.725L23.2375 2.22501L25 3.97501ZM22.2375 10.275C22.4 10.9875 22.5 11.7375 22.5 12.5C22.5 18.025 18.025 22.5 12.5 22.5C6.975 22.5 2.5 18.025 2.5 12.5C2.5 6.97501 6.975 2.50001 12.5 2.50001C14.475 2.50001 16.3 3.07501 17.85 4.06251L19.65 2.26251C17.5581 0.786948 15.06 -0.0035264 12.5 1.18263e-05C5.6 1.18263e-05 0 5.60001 0 12.5C0 19.4 5.6 25 12.5 25C19.4 25 25 19.4 25 12.5C25 11.0125 24.725 9.58751 24.25 8.26251L22.2375 10.275Z" fill="#E7E7E7"/>
</svg>
