<svg width="26" height="23" viewBox="0 0 26 23" fill="none" xmlns="http://www.w3.org/2000/svg">
<path d="M12.7085 2.66333L22.7485 20.01H2.66849L12.7085 2.66333ZM0.361828 18.6767C-0.664838 20.45 0.615161 22.6767 2.66849 22.6767H22.7485C24.8018 22.6767 26.0818 20.45 25.0552 18.6767L15.0152 1.33C13.9885 -0.443333 11.4285 -0.443333 10.4018 1.33L0.361828 18.6767ZM11.3752 9.34333V12.01C11.3752 12.7433 11.9752 13.3433 12.7085 13.3433C13.4418 13.3433 14.0418 12.7433 14.0418 12.01V9.34333C14.0418 8.61 13.4418 8.01 12.7085 8.01C11.9752 8.01 11.3752 8.61 11.3752 9.34333ZM11.3752 16.01H14.0418V18.6767H11.3752V16.01Z" fill="white"/>
</svg>
