<svg width="27" height="19" viewBox="0 0 27 19" fill="none" xmlns="http://www.w3.org/2000/svg">
<path d="M9.33333 9.33333C11.9067 9.33333 14 7.24 14 4.66667C14 2.09333 11.9067 0 9.33333 0C6.76 0 4.66667 2.09333 4.66667 4.66667C4.66667 7.24 6.76 9.33333 9.33333 9.33333ZM9.33333 2.66667C10.44 2.66667 11.3333 3.56 11.3333 4.66667C11.3333 5.77333 10.44 6.66667 9.33333 6.66667C8.22667 6.66667 7.33333 5.77333 7.33333 4.66667C7.33333 3.56 8.22667 2.66667 9.33333 2.66667ZM9.4 16H3.69333C5.01333 15.3333 7.29333 14.6667 9.33333 14.6667C9.48 14.6667 9.64 14.68 9.78667 14.68C10.24 13.7067 11.0267 12.9067 11.9733 12.2667C11 12.0933 10.08 12 9.33333 12C6.21333 12 0 13.56 0 16.6667V18.6667H9.33333V16.6667C9.33333 16.44 9.36 16.2133 9.4 16ZM19.3333 12.6667C16.88 12.6667 12 14.0133 12 16.6667V18.6667H26.6667V16.6667C26.6667 14.0133 21.7867 12.6667 19.3333 12.6667ZM20.9467 10.24C21.96 9.66667 22.6667 8.58667 22.6667 7.33333C22.6667 6.44928 22.3155 5.60143 21.6904 4.97631C21.0652 4.35119 20.2174 4 19.3333 4C18.4493 4 17.6014 4.35119 16.9763 4.97631C16.3512 5.60143 16 6.44928 16 7.33333C16 8.58667 16.7067 9.66667 17.72 10.24C18.2 10.5067 18.7467 10.6667 19.3333 10.6667C19.92 10.6667 20.4667 10.5067 20.9467 10.24Z" fill="#E7E7E7"/>
</svg>
