<svg width="6" height="22" viewBox="0 0 6 22" fill="none" xmlns="http://www.w3.org/2000/svg">
<path d="M2.66667 5.33333C4.13333 5.33333 5.33333 4.13333 5.33333 2.66667C5.33333 1.2 4.13333 0 2.66667 0C1.2 0 0 1.2 0 2.66667C0 4.13333 1.2 5.33333 2.66667 5.33333ZM2.66667 8C1.2 8 0 9.2 0 10.6667C0 12.1333 1.2 13.3333 2.66667 13.3333C4.13333 13.3333 5.33333 12.1333 5.33333 10.6667C5.33333 9.2 4.13333 8 2.66667 8ZM2.66667 16C1.2 16 0 17.2 0 18.6667C0 20.1333 1.2 21.3333 2.66667 21.3333C4.13333 21.3333 5.33333 20.1333 5.33333 18.6667C5.33333 17.2 4.13333 16 2.66667 16Z" fill="#E7E7E7"/>
</svg>
