<svg width="26" height="26" viewBox="0 0 26 26" fill="none" xmlns="http://www.w3.org/2000/svg">
<path d="M20.1782 11.5304C20.6682 11.5304 21.1439 11.5881 21.6195 11.6601V4.71305L10.8097 0L0 4.71305V11.7898C0 18.3333 4.61216 24.4589 10.8097 25.9434C11.6025 25.756 12.3664 25.4822 13.1158 25.1507C12.1213 23.7382 11.5304 22.0231 11.5304 20.1782C11.5304 15.4075 15.4075 11.5304 20.1782 11.5304Z" fill="#E7E7E7"/>
<path d="M20.3222 14.7013C17.2166 14.7013 14.7012 17.2167 14.7012 20.3224C14.7012 23.428 17.2166 25.9434 20.3222 25.9434C23.4279 25.9434 25.9433 23.428 25.9433 20.3224C25.9433 17.2167 23.4279 14.7013 20.3222 14.7013ZM20.3222 16.6406C21.1935 16.6406 21.8961 17.3572 21.8961 18.2145C21.8961 19.0717 21.1795 19.7884 20.3222 19.7884C19.465 19.7884 18.7483 19.0717 18.7483 18.2145C18.7483 17.3572 19.451 16.6406 20.3222 16.6406ZM20.3222 24.1868C19.0153 24.1868 17.8771 23.5404 17.1744 22.5427C17.2447 21.5309 19.2964 21.025 20.3222 21.025C21.3481 21.025 23.3998 21.5309 23.47 22.5427C22.7674 23.5404 21.6291 24.1868 20.3222 24.1868Z" fill="#E7E7E7"/>
</svg>
