<svg width="12" height="8" viewBox="0 0 12 8" fill="none" xmlns="http://www.w3.org/2000/svg">
<path d="M4.2 4C5.358 4 6.3 3.10286 6.3 2C6.3 0.897143 5.358 0 4.2 0C3.042 0 2.1 0.897143 2.1 2C2.1 3.10286 3.042 4 4.2 4ZM4.2 1.14286C4.698 1.14286 5.1 1.52571 5.1 2C5.1 2.47429 4.698 2.85714 4.2 2.85714C3.702 2.85714 3.3 2.47429 3.3 2C3.3 1.52571 3.702 1.14286 4.2 1.14286ZM4.23 6.85714H1.662C2.256 6.57143 3.282 6.28571 4.2 6.28571C4.266 6.28571 4.338 6.29143 4.404 6.29143C4.608 5.87429 4.962 5.53143 5.388 5.25714C4.95 5.18286 4.536 5.14286 4.2 5.14286C2.796 5.14286 0 5.81143 0 7.14286V8H4.2V7.14286C4.2 7.04571 4.212 6.94857 4.23 6.85714ZM8.7 5.42857C7.596 5.42857 5.4 6.00571 5.4 7.14286V8H12V7.14286C12 6.00571 9.804 5.42857 8.7 5.42857ZM9.426 4.38857C9.882 4.14286 10.2 3.68 10.2 3.14286C10.2 2.76398 10.042 2.40061 9.76066 2.1327C9.47936 1.8648 9.09783 1.71429 8.7 1.71429C8.30218 1.71429 7.92064 1.8648 7.63934 2.1327C7.35804 2.40061 7.2 2.76398 7.2 3.14286C7.2 3.68 7.518 4.14286 7.974 4.38857C8.19 4.50286 8.436 4.57143 8.7 4.57143C8.964 4.57143 9.21 4.50286 9.426 4.38857Z" fill="#E7E7E7"/>
</svg>
