<svg width="36" height="25" viewBox="0 0 36 25" fill="none" xmlns="http://www.w3.org/2000/svg">
<path d="M25.8399 12.4745C28.2992 12.4745 30.2773 10.4785 30.2773 8.01929C30.2773 5.56004 28.2992 3.56413 25.8399 3.56413C24.6583 3.56413 23.5252 4.03351 22.6897 4.86902C21.8542 5.70452 21.3848 6.83771 21.3848 8.01929C21.3848 9.20087 21.8542 10.3341 22.6897 11.1696C23.5252 12.0051 24.6583 12.4745 25.8399 12.4745ZM12.4744 10.6924C15.4327 10.6924 17.8028 8.30442 17.8028 5.34619C17.8028 2.38797 15.4327 0 12.4744 0C9.51622 0 7.12826 2.38797 7.12826 5.34619C7.12826 8.30442 9.51622 10.6924 12.4744 10.6924ZM25.8399 16.0386C22.5788 16.0386 16.0386 17.6781 16.0386 20.9393V24.9489H35.6413V20.9393C35.6413 17.6781 29.1011 16.0386 25.8399 16.0386ZM12.4744 14.2565C8.32224 14.2565 0 16.3415 0 20.4937V24.9489H12.4744V20.9393C12.4744 19.4245 13.0625 16.7692 16.6979 14.7555C15.1475 14.4347 13.6506 14.2565 12.4744 14.2565Z" fill="#E7E7E7"/>
</svg>
