<svg width="22" height="22" viewBox="0 0 22 22" fill="none" xmlns="http://www.w3.org/2000/svg">
<path d="M22 3.49801L9.449 16.06L4.785 11.396L6.336 9.84501L9.449 12.958L20.449 1.95801L22 3.49801ZM19.569 9.04201C19.712 9.66901 19.8 10.329 19.8 11C19.8 15.862 15.862 19.8 11 19.8C6.138 19.8 2.2 15.862 2.2 11C2.2 6.13801 6.138 2.20001 11 2.20001C12.738 2.20001 14.344 2.70601 15.708 3.57501L17.292 1.99101C15.4511 0.692514 13.2528 -0.00310323 11 1.04071e-05C4.928 1.04071e-05 0 4.92801 0 11C0 17.072 4.928 22 11 22C17.072 22 22 17.072 22 11C22 9.69101 21.758 8.43701 21.34 7.27101L19.569 9.04201Z" fill="white"/>
</svg>
