<svg width="25" height="23" viewBox="0 0 25 23" fill="none" xmlns="http://www.w3.org/2000/svg">
<path d="M22.7273 3.657L9.76136 16.79L4.94318 11.914L6.54545 10.2925L9.76136 13.547L21.125 2.047L22.7273 3.657ZM11.3636 20.7C6.35227 20.7 2.27273 16.5715 2.27273 11.5C2.27273 6.4285 6.35227 2.3 11.3636 2.3C13.1477 2.3 14.8182 2.829 16.2273 3.7375L17.875 2.07C15.9654 0.721103 13.6924 -0.00149699 11.3636 2.32847e-06C5.09091 2.32847e-06 0 5.152 0 11.5C0 17.848 5.09091 23 11.3636 23C13.3295 23 15.1818 22.494 16.7955 21.597L15.0909 19.872C13.9545 20.401 12.6932 20.7 11.3636 20.7ZM19.3182 14.95H15.9091V17.25H19.3182V20.7H21.5909V17.25H25V14.95H21.5909V11.5H19.3182V14.95Z" fill="#E7E7E7"/>
</svg>
